<?xml version="1.0" encoding="UTF-8"?>
<svg version="1.1" xmlns="http://www.w3.org/2000/svg" width="136" height="149">
<path d="M0 0 C44.88 0 89.76 0 136 0 C136 49.17 136 98.34 136 149 C91.12 149 46.24 149 0 149 C0 99.83 0 50.66 0 0 Z " fill="#10131A" transform="translate(0,0)"/>
<path d="M0 0 C1.11395645 -0.0038269 2.2279129 -0.00765381 3.37562561 -0.01159668 C5.71779287 -0.01430345 8.059991 -0.00702947 10.40209961 0.00976562 C13.95951711 0.03117094 17.51491051 0.00993036 21.07226562 -0.015625 C23.36068148 -0.01298111 25.6490961 -0.00785487 27.9375 0 C29.51143776 -0.01214539 29.51143776 -0.01214539 31.11717224 -0.02453613 C42.37046737 0.11623054 50.8185898 3.34257656 58.93359375 11.1484375 C63.7135299 16.56806771 66.12360705 22.60934806 66.24389648 29.82202148 C66.2631871 30.9042247 66.28247772 31.98642792 66.30235291 33.10142517 C66.36034296 38.0756383 66.40942721 43.049708 66.44018555 48.02416992 C66.46170115 50.63791162 66.49572618 53.25158255 66.54272461 55.86499023 C66.61011348 59.6485997 66.63725612 63.43071669 66.65625 67.21484375 C66.68408066 68.3684288 66.71191132 69.52201385 66.74058533 70.71055603 C66.71429614 81.23352972 63.3154575 89.54615366 55.84765625 97.03125 C48.14990142 103.95467447 38.04081113 105.1354776 28.12109375 105.02734375 C27.02600494 105.02879898 25.93091614 105.03025421 24.80264282 105.03175354 C22.50512002 105.03010498 20.20758495 105.01866199 17.91015625 104.99780273 C14.41227968 104.96876763 10.91591507 104.97723359 7.41796875 104.99023438 C5.17316979 104.98399788 2.92837557 104.97560763 0.68359375 104.96484375 C-0.86831161 104.96924721 -0.86831161 104.96924721 -2.4515686 104.97373962 C-13.20417101 104.83525706 -21.18341666 102.09327595 -28.96484375 94.53125 C-36.41429923 85.66512457 -37.28285322 76.79408211 -37.37109375 65.578125 C-37.3824939 64.44151428 -37.39389404 63.30490356 -37.40563965 62.1338501 C-37.42446315 59.73689453 -37.43757707 57.33988809 -37.4453125 54.94287109 C-37.46471156 51.30603295 -37.52681769 47.67146434 -37.58984375 44.03515625 C-37.80965722 20.07755056 -37.80965722 20.07755056 -28.76367188 10.10449219 C-20.62604795 1.86989944 -11.23402285 -0.0865211 0 0 Z " fill="#5391F4" transform="translate(61.96484375,28.46875)"/>
<path d="M0 0 C2.17871094 0.40258789 2.17871094 0.40258789 3.17871094 1.40258789 C2.69160423 7.97852845 1.02408731 14.08884734 -0.82128906 20.40258789 C-0.26143311 20.38687744 0.29842285 20.37116699 0.87524414 20.35498047 C3.41379684 20.29258941 5.95218823 20.25358571 8.49121094 20.21508789 C9.37228516 20.18995117 10.25335938 20.16481445 11.16113281 20.13891602 C12.4324707 20.12441406 12.4324707 20.12441406 13.72949219 20.10961914 C14.50977783 20.09390869 15.29006348 20.07819824 16.09399414 20.06201172 C18.71881251 20.49082325 19.56640263 21.32828223 21.17871094 23.40258789 C21.80371094 25.65258789 21.80371094 25.65258789 21.17871094 28.40258789 C19.6268038 30.27494783 17.93358143 31.8846465 16.15136719 33.53930664 C14.30327374 35.28493154 12.6872783 37.08286484 11.05371094 39.02758789 C7.66344705 42.92639137 4.14354387 46.68803115 0.55371094 50.40258789 C0.00312012 50.99120605 -0.5474707 51.57982422 -1.11474609 52.1862793 C-5.14402028 56.29810565 -5.14402028 56.29810565 -8.65722656 56.84008789 C-10.82128906 56.40258789 -10.82128906 56.40258789 -11.82128906 55.40258789 C-11.80566406 53.65258789 -11.80566406 53.65258789 -11.57128906 51.40258789 C-11.47074219 50.31977539 -11.47074219 50.31977539 -11.36816406 49.21508789 C-10.57720501 45.14729846 -9.19294857 41.30703264 -7.82128906 37.40258789 C-8.38114502 37.38800537 -8.94100098 37.37342285 -9.51782227 37.35839844 C-12.05717044 37.28387438 -14.59520984 37.18723208 -17.13378906 37.09008789 C-18.45540039 37.05625 -18.45540039 37.05625 -19.80371094 37.02172852 C-20.65126953 36.9862793 -21.49882813 36.95083008 -22.37207031 36.91430664 C-23.54249878 36.87503052 -23.54249878 36.87503052 -24.73657227 36.83496094 C-26.82128906 36.40258789 -26.82128906 36.40258789 -28.66186523 35.30810547 C-29.82128906 33.40258789 -29.82128906 33.40258789 -29.859375 30.11328125 C-28.60973337 25.64637084 -26.44993568 23.17919375 -23.21191406 20.03149414 C-22.64809021 19.46430161 -22.08426636 18.89710907 -21.50335693 18.31272888 C-20.31354093 17.12321067 -19.11627957 15.94109831 -17.91210938 14.76611328 C-16.07142955 12.96522534 -14.26202764 11.13668301 -12.45410156 9.30297852 C-11.29178763 8.14822104 -10.12778056 6.99516476 -8.96191406 5.84399414 C-8.42213928 5.29723526 -7.8823645 4.75047638 -7.32623291 4.18714905 C-4.90616272 1.85597507 -3.37916988 0.48219549 0 0 Z " fill="#0F1520" transform="translate(80.8212890625,52.597412109375)"/>
<path d="M0 0 C1 3 1 3 0 5.25 C-1.47171867 8.62476293 -1.47171867 8.62476293 0 15 C6.93 15.33 13.86 15.66 21 16 C14.3360161 23.77464789 14.3360161 23.77464789 11.5625 26.4375 C7.82516897 30.10809297 4.4016256 34.0193743 1 38 C-0.27171984 34.18484048 0.72862904 32.73932636 2 29 C2.41870553 26.33071879 2.41870553 26.33071879 2 24 C-1.0211434 21.9859044 -1.80660017 21.73163404 -5.23046875 21.5859375 C-6.03291016 21.54726562 -6.83535156 21.50859375 -7.66210938 21.46875 C-8.91217773 21.42234375 -8.91217773 21.42234375 -10.1875 21.375 C-11.03248047 21.33632812 -11.87746094 21.29765625 -12.74804688 21.2578125 C-14.83167524 21.16363721 -16.91580753 21.08073325 -19 21 C-12.96144069 13.78727638 -6.65448468 6.65448468 0 0 Z " fill="#528FF0" transform="translate(76,62)"/>
<path d="M0 0 C0.33 0.99 0.66 1.98 1 3 C-0.94032528 4.94032528 -2.92398243 6.49198696 -5.125 8.125 C-5.84945312 8.66382812 -6.57390625 9.20265625 -7.3203125 9.7578125 C-7.87460938 10.16773437 -8.42890625 10.57765625 -9 11 C-7.59155282 7.78475695 -5.89655214 5.67816132 -3.375 3.25 C-2.74335937 2.63640625 -2.11171875 2.0228125 -1.4609375 1.390625 C-0.73777344 0.70226563 -0.73777344 0.70226563 0 0 Z " fill="#4479CF" transform="translate(76,62)"/>
</svg>
